<svg xmlns="http://www.w3.org/2000/svg" viewBox="0 0 720 132" role="img" aria-labelledby="title desc">
  <title id="title">Fork Goodness Baked</title>
  <desc id="desc">Fork and plate brand mark for private chef, corporate lunch and event catering services</desc>
  <g transform="translate(5 5)">
    <g transform="scale(1.9) translate(1.5 1.5)" fill="none" stroke-linecap="round" stroke-linejoin="round">
      <path d="M25 12C13 15 7 24 7 34s6 19 18 22M40 12c11 4 17 12 17 22s-6 18-17 22" stroke="#344b57" stroke-width="3"/>
      <path d="M22 19c-7 4-11 9-11 15s4 11 11 15M43 19c7 4 10 9 10 15s-4 11-11 15" stroke="#8096a2" stroke-width="2"/>
      <path d="M27 8v17c0 5 3 8 6 9v19c0 2 1 4 2 4s2-2 2-4V34c3-1 6-4 6-9V8M32 8v17m6-17v17" stroke="#344b57" stroke-width="2.8"/>
    </g>
  </g>
  <text x="154" y="57" fill="#2f3033" font-family="Georgia, 'Times New Roman', serif" font-size="31" font-weight="400" letter-spacing="3">FORK GOODNESS</text>
  <line x1="154" y1="75" x2="247" y2="75" stroke="#8096a2" stroke-width="1.5"/>
  <line x1="401" y1="75" x2="494" y2="75" stroke="#8096a2" stroke-width="1.5"/>
  <text x="268" y="84" fill="#8096a2" font-family="Arial, Helvetica, sans-serif" font-size="17" letter-spacing="10">BAKED</text>
  <text x="154" y="112" fill="#4e5358" font-family="Arial, Helvetica, sans-serif" font-size="10" letter-spacing="2.2">PRIVATE CHEF  ·  CORPORATE LUNCHES  ·  EVENT CATERING</text>
</svg>
